<?xml version="1.0" standalone="no"?>
<!DOCTYPE svg PUBLIC "-//W3C//DTD SVG 20010904//EN"
 "http://www.w3.org/TR/2001/REC-SVG-20010904/DTD/svg10.dtd">
<svg version="1.0" xmlns="http://www.w3.org/2000/svg"
 width="500.000000pt" height="500.000000pt" viewBox="0 0 500.000000 500.000000"
 preserveAspectRatio="xMidYMid meet">

<g transform="translate(0.000000,500.000000) scale(0.100000,-0.100000)"
fill="#000000" stroke="none">
<path d="M2427 4293 c-4 -3 -7 -69 -7 -145 l0 -138 25 0 c25 0 25 0 25 94 0
79 3 97 21 120 14 17 30 26 50 26 25 0 29 4 29 26 0 24 -3 26 -32 20 -17 -3
-39 -13 -48 -21 -22 -20 -30 -19 -30 5 0 19 -20 27 -33 13z"/>
<path d="M2169 4266 c-76 -24 -115 -80 -106 -154 12 -108 117 -161 225 -112
46 21 63 47 41 61 -9 5 -21 2 -34 -11 -44 -40 -151 -30 -170 17 -10 28 5 34
178 60 33 5 37 9 37 34 0 68 -97 128 -171 105z m89 -52 c12 -8 26 -23 32 -34
9 -17 4 -20 -43 -29 -128 -25 -137 -25 -137 -1 0 31 18 60 43 70 35 14 81 11
105 -6z"/>
<path d="M3098 4178 c-80 -182 -80 -181 -45 -242 42 -74 166 -111 227 -69 38
26 47 39 106 163 51 106 54 115 38 127 -10 7 -20 13 -23 13 -3 0 -28 -50 -56
-111 -27 -61 -59 -121 -71 -135 -43 -46 -102 -44 -156 5 -47 42 -43 80 21 215
39 84 48 112 40 122 -22 27 -36 12 -81 -88z"/>
<path d="M1824 4166 c-98 -44 -105 -199 -11 -256 62 -38 172 -15 211 45 29 44
-2 63 -35 21 -24 -30 -80 -50 -118 -41 -28 6 -69 40 -60 50 3 2 50 22 104 44
56 22 101 47 103 55 2 8 -12 31 -30 52 -29 31 -42 37 -84 40 -29 3 -62 -1 -80
-10z m123 -50 c15 -13 26 -26 23 -28 -7 -6 -165 -68 -173 -68 -4 0 -7 14 -7
31 0 20 10 40 29 60 38 37 88 39 128 5z"/>
<path d="M3458 3907 c-100 -143 -105 -153 -90 -170 20 -23 11 -32 149 161 88
125 93 135 76 148 -10 7 -20 13 -23 13 -3 0 -53 -68 -112 -152z"/>
<path d="M2750 4036 c-27 -33 18 -72 48 -42 13 13 14 20 6 34 -15 23 -38 26
-54 8z"/>
<path d="M1513 4001 c-22 -16 -45 -43 -53 -60 -11 -27 -14 -29 -24 -16 -10 14
-14 14 -30 2 -18 -13 -15 -20 54 -123 90 -134 83 -126 103 -118 25 9 21 22
-33 103 -28 41 -50 85 -50 97 0 29 43 80 74 88 42 10 71 -10 121 -84 51 -76
69 -90 88 -71 8 8 -4 33 -47 96 -82 120 -128 140 -203 86z"/>
<path d="M3618 3797 c-207 -115 -236 -134 -223 -146 17 -17 8 -21 195 85 69
39 161 90 205 114 98 53 92 48 74 65 -12 13 -44 -2 -251 -118z"/>
<path d="M1189 3899 c-16 -31 9 -56 40 -40 24 13 27 31 9 49 -18 18 -36 15
-49 -9z"/>
<path d="M1280 3815 c-6 -8 -10 -18 -8 -23 1 -5 44 -52 93 -105 83 -88 92 -95
109 -82 17 13 12 21 -79 120 -54 58 -99 105 -100 105 -2 0 -8 -7 -15 -15z"/>
<path d="M3800 3720 c-113 -90 -135 -113 -149 -159 -11 -40 -11 -47 14 -97 34
-70 82 -104 146 -104 48 0 84 21 221 130 47 36 55 47 47 62 -5 10 -13 18 -17
18 -5 0 -54 -36 -111 -80 -91 -71 -107 -80 -145 -80 -35 0 -48 6 -76 35 -43
45 -47 101 -9 142 18 19 141 119 198 160 7 5 -21 33 -33 33 -6 0 -45 -27 -86
-60z"/>
<path d="M1156 3694 c-4 -9 -1 -23 5 -30 9 -11 7 -15 -7 -20 -78 -25 -109 -67
-109 -146 0 -46 4 -61 25 -83 52 -56 105 -68 167 -39 39 19 83 78 83 111 0 12
5 25 12 29 15 10 58 -41 58 -69 0 -33 -35 -84 -79 -114 -39 -27 -55 -63 -28
-63 21 0 91 54 114 87 67 95 47 147 -95 254 -31 24 -72 56 -90 71 -38 32 -47
34 -56 12z m86 -95 c57 -30 54 -134 -5 -169 -43 -27 -80 -25 -115 5 -50 42
-50 99 0 153 24 24 84 30 120 11z"/>
<path d="M4114 3353 c-63 -113 -73 -126 -103 -119 -93 21 -193 38 -197 33 -3
-3 -1 -14 5 -24 7 -14 30 -23 83 -33 40 -7 83 -17 96 -21 l22 -9 -25 -40 c-14
-22 -25 -42 -25 -45 0 -3 -11 -23 -25 -45 -21 -32 -23 -44 -15 -60 6 -12 15
-18 20 -15 5 3 33 49 62 101 l53 95 40 -6 c22 -4 54 -10 70 -15 17 -5 50 -12
75 -16 l44 -6 -15 23 c-16 23 -87 48 -139 49 -52 1 -53 12 -6 94 41 72 48 107
25 121 -4 3 -25 -25 -45 -62z"/>
<path d="M951 3346 c-48 -16 -73 -55 -79 -121 -4 -47 -7 -55 -22 -50 -12 4
-19 -1 -23 -16 -5 -18 5 -25 71 -56 42 -19 99 -46 125 -59 58 -29 54 -29 67
-4 10 19 5 24 -63 56 -41 19 -85 46 -97 59 -29 31 -30 77 -3 113 30 41 70 40
160 -3 77 -36 103 -39 103 -10 0 10 -25 28 -67 47 -115 52 -134 57 -172 44z"/>
<path d="M681 3018 c-5 -18 -13 -51 -17 -73 -3 -22 -13 -65 -20 -95 -18 -68
-18 -70 3 -70 9 0 44 -6 77 -14 127 -30 202 -46 242 -52 l41 -6 13 63 c7 35
19 89 26 119 8 30 14 62 14 72 0 27 -37 23 -43 -4 -2 -13 -12 -57 -21 -98 -9
-41 -18 -80 -20 -86 -3 -8 -21 -7 -63 1 l-58 12 2 39 c2 21 9 64 17 94 8 30
14 56 13 57 -1 0 -11 3 -21 5 -17 3 -23 -9 -41 -87 -23 -99 -17 -94 -102 -80
-38 7 -41 20 -19 105 25 101 26 118 10 124 -22 9 -21 9 -33 -26z"/>
<path d="M4265 2830 c-38 -4 -117 -11 -174 -15 l-103 -8 7 -100 c4 -59 14
-117 25 -141 52 -122 211 -152 303 -58 51 53 59 87 52 220 -6 96 -9 112 -23
110 -10 0 -48 -4 -87 -8z m69 -111 c9 -86 -1 -132 -36 -168 -59 -60 -141 -64
-203 -10 -36 32 -48 64 -59 156 -5 35 -3 54 6 59 11 7 140 19 239 22 l46 2 7
-61z"/>
<path d="M889 2490 c-25 -4 -98 -11 -162 -15 -125 -8 -157 -19 -135 -46 11
-13 26 -15 81 -10 65 6 81 0 58 -24 -5 -6 -10 -23 -12 -40 -5 -68 1 -87 40
-126 35 -35 44 -39 91 -39 102 0 155 48 155 142 0 49 -4 61 -30 88 -26 27 -27
30 -9 30 27 0 33 7 27 31 -6 21 -24 22 -104 9z m41 -79 c39 -39 47 -76 26
-116 -16 -29 -70 -65 -97 -65 -30 0 -79 35 -94 66 -47 99 88 193 165 115z"/>
<path d="M4085 2398 c-76 -26 -118 -114 -95 -197 8 -31 16 -41 28 -39 14 3 16
14 14 71 -4 63 -2 68 26 97 57 57 85 35 63 -50 -5 -19 -12 -63 -16 -97 l-6
-63 36 0 c84 0 145 61 145 146 0 91 -106 163 -195 132z m116 -61 c59 -45 46
-142 -22 -166 -18 -6 -34 -9 -37 -6 -10 9 21 185 32 185 6 0 18 -6 27 -13z"/>
<path d="M940 2139 c-47 -16 -96 -34 -108 -41 -28 -14 -52 -57 -52 -91 0 -39
28 -95 56 -113 22 -15 23 -19 10 -26 -17 -10 -22 -48 -6 -48 28 0 262 85 267
97 13 32 -14 35 -92 9 -97 -33 -122 -33 -157 1 -21 20 -28 36 -28 63 0 49 21
67 120 100 44 15 83 30 86 32 2 3 1 14 -3 25 -8 20 -10 20 -93 -8z"/>
<path d="M3951 2074 c-55 -85 -50 -172 10 -193 44 -15 70 0 110 65 37 61 59
75 85 53 21 -17 13 -69 -16 -109 -21 -30 -21 -60 0 -60 5 0 22 18 36 40 20 29
27 53 28 94 1 66 -20 96 -70 96 -34 0 -42 -8 -105 -98 -31 -45 -53 -51 -73
-20 -13 21 5 78 40 124 17 23 20 34 11 43 -18 18 -26 13 -56 -35z"/>
<path d="M3850 1841 c-12 -24 -22 -17 130 -92 111 -54 120 -57 130 -40 7 13 6
22 -3 29 -11 9 -237 122 -244 122 -1 0 -7 -9 -13 -19z"/>
<path d="M1097 1818 c-2 -7 13 -29 34 -48 44 -42 58 -93 37 -137 -7 -15 -18
-28 -23 -28 -5 0 -35 41 -65 92 -30 50 -58 95 -62 98 -11 12 -56 -25 -72 -60
-31 -65 -15 -129 44 -179 83 -69 230 1 230 110 0 54 -29 115 -69 143 -33 24
-47 26 -54 9z m-35 -158 c43 -73 45 -79 27 -85 -28 -9 -74 3 -93 24 -26 28
-32 86 -12 116 9 14 20 25 24 25 4 0 29 -36 54 -80z"/>
<path d="M3689 1753 c-78 -70 -99 -150 -55 -207 13 -17 74 -67 136 -110 98
-69 114 -77 126 -64 13 13 13 16 -1 28 -14 11 -11 15 24 31 99 44 118 182 35
245 -43 34 -122 37 -163 7 -34 -26 -71 -91 -71 -127 l0 -30 -30 29 c-23 22
-30 37 -30 68 0 33 7 46 43 82 23 23 48 44 56 47 19 6 7 38 -14 38 -8 0 -33
-17 -56 -37z m241 -123 c30 -28 32 -34 27 -78 -4 -37 -12 -52 -38 -74 -46 -38
-82 -37 -125 6 -50 50 -44 104 14 153 38 33 83 30 122 -7z"/>
<path d="M4166 1684 c-7 -19 10 -44 29 -44 19 0 36 25 29 44 -3 9 -16 16 -29
16 -13 0 -26 -7 -29 -16z"/>
<path d="M1265 1589 c-4 -6 2 -21 14 -33 34 -36 26 -58 -36 -113 -81 -69 -80
-69 -114 -37 -21 20 -32 25 -40 17 -8 -8 -5 -20 12 -42 l23 -31 -23 -23 c-19
-22 -20 -25 -6 -37 13 -10 20 -11 39 -1 19 10 27 10 44 0 17 -11 24 -11 34 -1
9 9 8 16 -5 30 -16 17 -13 21 54 77 39 32 75 67 81 78 15 29 1 83 -29 107 -29
23 -39 25 -48 9z"/>
<path d="M3593 1459 c-20 -20 -16 -33 18 -65 52 -48 89 -105 89 -136 0 -40
-48 -88 -89 -88 -24 0 -43 14 -99 72 -49 50 -74 69 -86 65 -28 -11 -18 -29 62
-109 65 -65 84 -78 111 -78 62 0 131 56 131 106 0 26 10 30 26 14 8 -8 15 -6
24 5 16 19 7 32 -97 143 -63 68 -80 81 -90 71z"/>
<path d="M1367 1360 c-67 -82 -81 -112 -72 -157 7 -40 63 -90 109 -99 28 -5
35 -10 33 -27 -4 -41 30 -30 70 21 21 27 60 75 88 107 47 55 48 58 30 71 -17
13 -23 10 -64 -38 -26 -29 -57 -63 -70 -75 -33 -31 -81 -30 -120 3 -47 39 -42
68 29 157 33 42 60 81 60 86 0 7 -22 21 -34 21 -1 0 -28 -32 -59 -70z"/>
<path d="M3249 1200 c-37 -19 -89 -73 -89 -91 0 -25 31 -16 67 21 35 35 46 40
85 40 32 0 50 -6 62 -19 17 -19 14 -21 -83 -78 -55 -32 -101 -62 -101 -66 0
-21 69 -76 103 -82 90 -17 188 75 173 160 -21 108 -125 163 -217 115z m171
-140 c0 -16 -11 -42 -26 -59 -21 -26 -33 -31 -68 -31 -51 0 -88 22 -69 41 21
21 147 88 155 83 4 -3 8 -18 8 -34z"/>
<path d="M1659 1166 c-99 -68 -87 -204 23 -262 90 -47 208 30 208 135 0 115
-138 190 -231 127z m151 -46 c21 -16 25 -27 25 -75 0 -50 -3 -60 -28 -81 -39
-33 -95 -33 -136 2 -26 22 -31 33 -31 71 0 63 40 103 102 103 27 0 52 -8 68
-20z"/>
<path d="M3043 1099 c-8 -8 -4 -28 14 -72 14 -34 26 -84 27 -110 1 -49 -2 -54
-49 -82 -10 -6 -14 -16 -10 -27 10 -26 23 -22 62 17 26 26 35 30 40 20 7 -19
43 -19 43 -1 0 8 -14 52 -31 98 -17 45 -38 102 -46 126 -16 42 -30 51 -50 31z"/>
<path d="M2043 1028 c-7 -18 -16 -52 -22 -74 -18 -67 -45 -94 -96 -94 -43 0
-64 -18 -49 -42 7 -10 56 -7 87 7 14 6 17 3 15 -16 -2 -18 2 -24 17 -24 17 0
27 21 62 129 24 70 40 132 37 137 -12 21 -40 8 -51 -23z"/>
<path d="M2720 1005 c-25 -30 15 -70 45 -45 20 16 19 46 -1 54 -23 9 -30 8
-44 -9z"/>
<path d="M2359 993 c-1 -5 -6 -37 -13 -73 -12 -74 0 -68 -133 -55 -68 6 -73 5
-73 -13 0 -17 12 -21 95 -33 106 -14 103 -10 84 -99 -12 -58 -9 -57 -137 -36
-72 12 -84 12 -89 -1 -3 -8 -1 -19 4 -24 7 -7 214 -39 254 -39 3 0 14 60 23
133 10 72 21 154 26 182 4 27 6 53 3 57 -6 10 -43 10 -44 1z"/>
</g>
</svg>
